<svg width="22" height="27" viewBox="0 0 22 27" fill="none" xmlns="http://www.w3.org/2000/svg">
<g clip-path="url(#clip0_4_127)">
<path fill-rule="evenodd" clip-rule="evenodd" d="M13.8235 2.22378C15.4774 9.41983 22 14.6515 22 18.8966C22 29.1886 7.16688 29.6786 5.76378 20.3556C5.36734 20.3056 4.97548 20.2233 4.592 20.1095C3.79102 19.8761 3.04013 19.4923 2.37816 18.9779C0.847504 17.776 0.147032 16.35 0.0216394 14.8449C-0.125373 13.1002 0.516726 11.2765 1.51338 9.58023C1.89389 8.93423 2.24196 8.37393 2.59436 7.79824C3.96504 5.60098 5.51083 3.13125 6.11401 0.479152C6.14543 0.343748 6.22091 0.223095 6.32823 0.136747C6.43556 0.0503992 6.56843 0.00341797 6.70531 0.00341797C6.84219 0.00341797 6.97506 0.0503992 7.08238 0.136747C7.1897 0.223095 7.26519 0.343748 7.2966 0.479152C7.90411 3.11587 9.44774 5.59219 10.8163 7.78506L11.2097 8.41567C12.3231 6.52603 13.3133 4.47598 13.8235 2.22378ZM5.66217 19.0944C5.66217 19.0285 5.66217 18.9647 5.66217 18.8966C5.66217 16.2379 8.19597 13.2233 10.5028 9.58023C10.2866 9.22427 10.0444 8.83755 9.80014 8.44424C8.70835 6.69741 7.51063 4.777 6.7172 2.6918C5.91944 4.79019 4.71739 6.7106 3.62561 8.45962C3.22132 9.10342 2.83434 9.72305 2.54463 10.2174C1.67985 11.7094 1.10478 13.2936 1.22801 14.7526C1.32746 15.9259 1.8874 17.0465 3.12187 18.0133C3.6633 18.4309 4.27608 18.743 4.92926 18.934C5.16838 19.0059 5.41172 19.0624 5.65784 19.1032L5.66217 19.0944Z" fill="#42BDFF"/>
<path fill-rule="evenodd" clip-rule="evenodd" d="M8.84887 17.6836C8.83994 17.4671 8.91334 17.2553 9.05387 17.0923C9.1944 16.9292 9.39126 16.8274 9.60366 16.8079C9.81606 16.7884 10.0277 16.8528 10.1947 16.9876C10.3617 17.1224 10.4712 17.3173 10.5006 17.532C10.5704 18.5894 10.8436 19.6226 11.3048 20.573C11.7749 21.4804 12.4906 22.2321 13.3673 22.7395C13.5401 22.8592 13.6619 23.041 13.7083 23.2482C13.7547 23.4554 13.7222 23.6728 13.6173 23.8567C13.5125 24.0406 13.3431 24.1774 13.1431 24.2396C12.9431 24.3017 12.7274 24.2847 12.5393 24.1919C11.3897 23.5301 10.4516 22.5461 9.83689 21.3574C9.27427 20.2103 8.93859 18.9621 8.84887 17.6836Z" fill="white"/>
</g>
<defs>
<clipPath id="clip0_4_127">
<rect width="22" height="27" fill="white"/>
</clipPath>
</defs>
</svg>
