<svg width="28" height="26" viewBox="0 0 28 26" fill="none" xmlns="http://www.w3.org/2000/svg">
<path d="M17 24C17.5523 24 18 24.4477 18 25C18 25.5523 17.5523 26 17 26H5C4.44772 26 4 25.5523 4 25C4 24.4477 4.44772 24 5 24H17ZM23 24C23.5523 24 24 24.4477 24 25C24 25.5523 23.5523 26 23 26H21C20.4477 26 20 25.5523 20 25C20 24.4477 20.4477 24 21 24H23ZM27 20C27.5523 20 28 20.4477 28 21C28 21.5523 27.5523 22 27 22H1C0.447715 22 0 21.5523 0 21C0 20.4477 0.447715 20 1 20H27ZM14 6C18.4223 6 22 9.57772 22 14C22 15.2372 21.7133 16.3923 21.2246 17.4268C21.0594 17.7764 20.707 17.9999 20.3203 18H7.67969C7.29302 17.9999 6.94059 17.7764 6.77539 17.4268C6.28669 16.3923 6 15.2372 6 14C6 9.57772 9.57772 6 14 6ZM4 13C4.55228 13 5 13.4477 5 14C5 14.5523 4.55228 15 4 15H1C0.447715 15 0 14.5523 0 14C0 13.4477 0.447715 13 1 13H4ZM27 13C27.5523 13 28 13.4477 28 14C28 14.5523 27.5523 15 27 15H24C23.4477 15 23 14.5523 23 14C23 13.4477 23.4477 13 24 13H27ZM4.10254 4.10254C4.49292 3.71216 5.12604 3.71244 5.5166 4.10254L7.63672 6.22266C8.02713 6.61319 8.0272 7.24623 7.63672 7.63672C7.24623 8.0272 6.61319 8.02713 6.22266 7.63672L4.10254 5.5166C3.71244 5.12604 3.71216 4.49292 4.10254 4.10254ZM22.4834 4.10254C22.8739 3.71246 23.5071 3.71222 23.8975 4.10254C24.2878 4.49292 24.2875 5.12606 23.8975 5.5166L21.7773 7.63672C21.3868 8.02717 20.7538 8.02717 20.3633 7.63672C19.9728 7.24621 19.9728 6.61317 20.3633 6.22266L22.4834 4.10254ZM14 0C14.5523 0 15 0.447715 15 1V4C15 4.55228 14.5523 5 14 5C13.4477 5 13 4.55228 13 4V1C13 0.447715 13.4477 0 14 0Z" fill="#FFC802"/>
</svg>
