<svg width="23" height="23" viewBox="0 0 23 23" fill="none" xmlns="http://www.w3.org/2000/svg">
<path d="M10.4857 0.591654C10.6092 -0.197226 11.7452 -0.197227 11.8688 0.591652L12.4157 4.08261C12.5097 4.68252 13.2706 4.88643 13.652 4.41388L15.8711 1.66407C16.3726 1.04267 17.3563 1.61065 17.0689 2.35563L15.7971 5.65233C15.5785 6.21887 16.1356 6.77594 16.7021 6.55738L19.9988 5.28552C20.7438 4.99811 21.3118 5.98188 20.6904 6.48335L17.9406 8.70245C17.468 9.0838 17.6719 9.84477 18.2718 9.93876L21.7628 10.4857C22.5517 10.6092 22.5517 11.7452 21.7628 11.8688L18.2718 12.4157C17.6719 12.5097 17.468 13.2706 17.9406 13.652L20.6904 15.8711C21.3118 16.3726 20.7438 17.3563 19.9988 17.0689L16.7021 15.7971C16.1356 15.5785 15.5785 16.1356 15.7971 16.7021L17.0689 19.9988C17.3563 20.7438 16.3726 21.3118 15.8711 20.6904L13.652 17.9406C13.2706 17.468 12.5097 17.6719 12.4157 18.2718L11.8688 21.7628C11.7452 22.5517 10.6092 22.5517 10.4857 21.7628L9.93876 18.2718C9.84477 17.6719 9.0838 17.468 8.70245 17.9406L6.48335 20.6904C5.98188 21.3118 4.99811 20.7438 5.28552 19.9988L6.55738 16.7021C6.77594 16.1356 6.21887 15.5785 5.65234 15.7971L2.35563 17.0689C1.61065 17.3563 1.04267 16.3726 1.66407 15.8711L4.41388 13.652C4.88643 13.2706 4.68252 12.5097 4.08261 12.4157L0.591654 11.8688C-0.197226 11.7452 -0.197227 10.6092 0.591652 10.4857L4.08261 9.93876C4.68252 9.84477 4.88643 9.0838 4.41388 8.70245L1.66407 6.48335C1.04267 5.98188 1.61065 4.99811 2.35563 5.28552L5.65233 6.55738C6.21887 6.77594 6.77594 6.21887 6.55738 5.65234L5.28552 2.35563C4.99811 1.61065 5.98188 1.04267 6.48335 1.66407L8.70245 4.41388C9.0838 4.88643 9.84477 4.68252 9.93876 4.08261L10.4857 0.591654Z" fill="#FFA600"/>
</svg>
